<mxfile host="app.diagrams.net" modified="2022-02-11T16:47:43.579Z" agent="5.0 (Windows NT 10.0; Win64; x64) AppleWebKit/537.36 (KHTML, like Gecko) Chrome/97.0.4692.71 Safari/537.36 Edg/97.0.1072.62" etag="JbwTtGVRGyMq8S69NnFg" version="16.2.4" type="github">
  <diagram id="ZKkIqwMFY3Yj89c2zsar" name="Page-1">
    <mxGraphModel dx="1422" dy="762" grid="1" gridSize="10" guides="1" tooltips="1" connect="1" arrows="1" fold="1" page="1" pageScale="1" pageWidth="827" pageHeight="1169" math="0" shadow="0">
      <root>
        <mxCell id="0" />
        <mxCell id="1" parent="0" />
        <mxCell id="h0yrN-bGKglG5gvqXNfj-80" value="download" style="html=1;shadow=0;dashed=0;shape=mxgraph.bootstrap.rrect;rSize=5;strokeColor=none;strokeWidth=1;fillColor=#6C767D;fontColor=#FFFFFF;whiteSpace=wrap;align=left;verticalAlign=middle;spacingLeft=0;fontStyle=0;fontSize=14;spacing=5;fontFamily=Helvetica;" parent="1" vertex="1">
          <mxGeometry x="10" y="41" width="70" height="20" as="geometry" />
        </mxCell>
        <mxCell id="h0yrN-bGKglG5gvqXNfj-81" value="duplicate" style="html=1;shadow=0;dashed=0;shape=mxgraph.bootstrap.rrect;rSize=5;strokeColor=none;strokeWidth=1;fillColor=#6C767D;fontColor=#FFFFFF;whiteSpace=wrap;align=left;verticalAlign=middle;spacingLeft=0;fontStyle=0;fontSize=14;spacing=5;fontFamily=Helvetica;" parent="1" vertex="1">
          <mxGeometry x="10" y="67" width="70" height="20" as="geometry" />
        </mxCell>
        <mxCell id="h0yrN-bGKglG5gvqXNfj-102" value="Metadata" style="html=1;fillColor=none;strokeColor=none;fontSize=14;align=left;fontColor=#596780;whiteSpace=wrap;sketch=1;hachureGap=4;pointerEvents=0;fontFamily=Helvetica;fontStyle=1" parent="1" vertex="1">
          <mxGeometry x="120" y="41" width="120" height="20" as="geometry" />
        </mxCell>
        <mxCell id="h0yrN-bGKglG5gvqXNfj-104" value="" style="shape=line;strokeWidth=2;html=1;strokeColor=#DFE1E5;resizeWidth=1;sketch=1;hachureGap=4;pointerEvents=0;fontFamily=Helvetica;fontSize=14;" parent="1" vertex="1">
          <mxGeometry x="121" y="61" width="619" height="10" as="geometry" />
        </mxCell>
        <mxCell id="h0yrN-bGKglG5gvqXNfj-106" value="&amp;lt;Meta-Attribute_1&amp;gt;" style="strokeColor=none;fillColor=none;fontSize=14;fontColor=#596780;align=left;html=1;sketch=1;hachureGap=4;pointerEvents=0;fontFamily=Helvetica;" parent="1" vertex="1">
          <mxGeometry x="119" y="72" width="141" height="20" as="geometry" />
        </mxCell>
        <mxCell id="h0yrN-bGKglG5gvqXNfj-108" value="&amp;lt;Meta-Attribute_2&amp;gt;" style="strokeColor=none;fillColor=none;fontSize=14;fontColor=#596780;align=left;html=1;sketch=1;hachureGap=4;pointerEvents=0;fontFamily=Helvetica;" parent="1" vertex="1">
          <mxGeometry x="119" y="102" width="141" height="20" as="geometry" />
        </mxCell>
        <mxCell id="h0yrN-bGKglG5gvqXNfj-110" value="&amp;lt;Meta-Attribute_3&amp;gt;" style="strokeColor=none;fillColor=none;fontSize=14;fontColor=#596780;align=left;html=1;sketch=1;hachureGap=4;pointerEvents=0;fontFamily=Helvetica;" parent="1" vertex="1">
          <mxGeometry x="119" y="132" width="141" height="20" as="geometry" />
        </mxCell>
        <mxCell id="h0yrN-bGKglG5gvqXNfj-113" value="&amp;lt;val_1&amp;gt;" style="strokeColor=none;fillColor=none;fontSize=14;fontColor=#596780;align=left;html=1;sketch=1;hachureGap=4;pointerEvents=0;fontFamily=Helvetica;" parent="1" vertex="1">
          <mxGeometry x="280" y="71" width="100" height="20" as="geometry" />
        </mxCell>
        <mxCell id="h0yrN-bGKglG5gvqXNfj-114" value="&amp;lt;val_2&amp;gt;" style="strokeColor=none;fillColor=none;fontSize=14;fontColor=#596780;align=left;html=1;sketch=1;hachureGap=4;pointerEvents=0;fontFamily=Helvetica;" parent="1" vertex="1">
          <mxGeometry x="280" y="102" width="100" height="20" as="geometry" />
        </mxCell>
        <mxCell id="h0yrN-bGKglG5gvqXNfj-115" value="&amp;lt;val_3&amp;gt;" style="strokeColor=none;fillColor=none;fontSize=14;fontColor=#596780;align=left;html=1;sketch=1;hachureGap=4;pointerEvents=0;fontFamily=Helvetica;" parent="1" vertex="1">
          <mxGeometry x="280" y="132" width="100" height="20" as="geometry" />
        </mxCell>
        <mxCell id="h0yrN-bGKglG5gvqXNfj-120" value="" style="rounded=1;arcSize=23;fillColor=#42526E;strokeColor=none;sketch=0;hachureGap=4;pointerEvents=0;fontFamily=Helvetica;fontSize=14;" parent="1" vertex="1">
          <mxGeometry x="160" y="174" width="40" height="10" as="geometry" />
        </mxCell>
        <mxCell id="h0yrN-bGKglG5gvqXNfj-121" value="" style="shape=ellipse;fillColor=#ffffff;strokeColor=none;html=1;sketch=0;hachureGap=4;pointerEvents=0;fontFamily=Helvetica;fontSize=14;" parent="h0yrN-bGKglG5gvqXNfj-120" vertex="1">
          <mxGeometry x="0.5" y="0.5" width="4" height="4" relative="1" as="geometry">
            <mxPoint x="-10" y="-2" as="offset" />
          </mxGeometry>
        </mxCell>
        <mxCell id="h0yrN-bGKglG5gvqXNfj-122" value="" style="shape=ellipse;fillColor=#ffffff;strokeColor=none;html=1;sketch=0;hachureGap=4;pointerEvents=0;fontFamily=Helvetica;fontSize=14;" parent="h0yrN-bGKglG5gvqXNfj-120" vertex="1">
          <mxGeometry x="0.5" y="0.5" width="4" height="4" relative="1" as="geometry">
            <mxPoint x="-2" y="-2" as="offset" />
          </mxGeometry>
        </mxCell>
        <mxCell id="h0yrN-bGKglG5gvqXNfj-123" value="" style="shape=ellipse;fillColor=#ffffff;strokeColor=none;html=1;sketch=0;hachureGap=4;pointerEvents=0;fontFamily=Helvetica;fontSize=14;" parent="h0yrN-bGKglG5gvqXNfj-120" vertex="1">
          <mxGeometry x="0.5" y="0.5" width="4" height="4" relative="1" as="geometry">
            <mxPoint x="6" y="-2" as="offset" />
          </mxGeometry>
        </mxCell>
        <mxCell id="mMDRhzUluplxsm2JugzY-1" value="" style="html=1;shadow=0;dashed=0;shape=mxgraph.bootstrap.rrect;rSize=5;strokeColor=#DFDFDF;html=1;whiteSpace=wrap;fillColor=#FFFFFF;fontColor=#000000;fontSize=14;" vertex="1" parent="1">
          <mxGeometry x="119" y="290" width="620" height="120" as="geometry" />
        </mxCell>
        <mxCell id="mMDRhzUluplxsm2JugzY-2" value="&lt;span style=&quot;text-align: center&quot;&gt;&lt;font style=&quot;font-size: 14px&quot;&gt;&amp;lt;project-name&amp;gt;, &amp;lt;data-name&amp;gt;, &amp;lt;creation-data&amp;gt;, &amp;lt;data-type&amp;gt;, &amp;lt;data-size&amp;gt;&lt;/font&gt;&lt;/span&gt;" style="strokeColor=inherit;fillColor=inherit;gradientColor=inherit;fontColor=inherit;html=1;shadow=0;dashed=0;shape=mxgraph.bootstrap.topButton;rSize=5;perimeter=none;whiteSpace=wrap;resizeWidth=1;align=left;spacing=10;fontSize=14;" vertex="1" parent="mMDRhzUluplxsm2JugzY-1">
          <mxGeometry width="620" height="40" relative="1" as="geometry" />
        </mxCell>
        <mxCell id="mMDRhzUluplxsm2JugzY-3" value="&lt;span style=&quot;text-align: center&quot;&gt;&amp;lt;project-name&amp;gt;, &amp;lt;data-name&amp;gt;, &amp;lt;creation-data&amp;gt;, &amp;lt;data-type&amp;gt;, &amp;lt;data-size&amp;gt;&lt;/span&gt;" style="strokeColor=inherit;fillColor=inherit;gradientColor=inherit;fontColor=inherit;html=1;shadow=0;dashed=0;perimeter=none;whiteSpace=wrap;resizeWidth=1;align=left;spacing=10;fontSize=14;" vertex="1" parent="mMDRhzUluplxsm2JugzY-1">
          <mxGeometry width="620" height="40" relative="1" as="geometry">
            <mxPoint y="40" as="offset" />
          </mxGeometry>
        </mxCell>
        <mxCell id="mMDRhzUluplxsm2JugzY-4" value="&lt;span style=&quot;text-align: center&quot;&gt;&amp;lt;project-name&amp;gt;, &amp;lt;data-name&amp;gt;, &amp;lt;creation-data&amp;gt;, &amp;lt;data-type&amp;gt;, &amp;lt;data-size&amp;gt;&lt;/span&gt;" style="strokeColor=inherit;fillColor=inherit;gradientColor=inherit;fontColor=inherit;html=1;shadow=0;dashed=0;shape=mxgraph.bootstrap.bottomButton;rSize=5;perimeter=none;whiteSpace=wrap;resizeWidth=1;resizeHeight=0;align=left;spacing=10;fontSize=14;" vertex="1" parent="mMDRhzUluplxsm2JugzY-1">
          <mxGeometry y="1" width="620" height="40" relative="1" as="geometry">
            <mxPoint y="-40" as="offset" />
          </mxGeometry>
        </mxCell>
        <mxCell id="mMDRhzUluplxsm2JugzY-22" style="edgeStyle=orthogonalEdgeStyle;rounded=0;orthogonalLoop=1;jettySize=auto;html=1;fontFamily=Helvetica;fontSize=14;exitX=-0.002;exitY=0.55;exitDx=0;exitDy=0;exitPerimeter=0;" edge="1" parent="mMDRhzUluplxsm2JugzY-1" source="mMDRhzUluplxsm2JugzY-3">
          <mxGeometry relative="1" as="geometry">
            <mxPoint x="1" y="270" as="targetPoint" />
            <mxPoint x="-19" y="60" as="sourcePoint" />
            <Array as="points">
              <mxPoint x="-39" y="62" />
              <mxPoint x="-39" y="270" />
            </Array>
          </mxGeometry>
        </mxCell>
        <mxCell id="mMDRhzUluplxsm2JugzY-5" value="Raw Data" style="html=1;fillColor=none;strokeColor=none;fontSize=14;align=left;fontColor=#596780;whiteSpace=wrap;sketch=1;hachureGap=4;pointerEvents=0;fontFamily=Helvetica;fontStyle=1" vertex="1" parent="1">
          <mxGeometry x="119" y="260" width="121" height="20" as="geometry" />
        </mxCell>
        <mxCell id="mMDRhzUluplxsm2JugzY-6" value="" style="rounded=1;arcSize=23;fillColor=#42526E;strokeColor=none;sketch=0;hachureGap=4;pointerEvents=0;fontFamily=Helvetica;fontSize=14;" vertex="1" parent="1">
          <mxGeometry x="160" y="420" width="40" height="10" as="geometry" />
        </mxCell>
        <mxCell id="mMDRhzUluplxsm2JugzY-7" value="" style="shape=ellipse;fillColor=#ffffff;strokeColor=none;html=1;sketch=0;hachureGap=4;pointerEvents=0;fontFamily=Helvetica;fontSize=14;" vertex="1" parent="mMDRhzUluplxsm2JugzY-6">
          <mxGeometry x="0.5" y="0.5" width="4" height="4" relative="1" as="geometry">
            <mxPoint x="-10" y="-2" as="offset" />
          </mxGeometry>
        </mxCell>
        <mxCell id="mMDRhzUluplxsm2JugzY-8" value="" style="shape=ellipse;fillColor=#ffffff;strokeColor=none;html=1;sketch=0;hachureGap=4;pointerEvents=0;fontFamily=Helvetica;fontSize=14;" vertex="1" parent="mMDRhzUluplxsm2JugzY-6">
          <mxGeometry x="0.5" y="0.5" width="4" height="4" relative="1" as="geometry">
            <mxPoint x="-2" y="-2" as="offset" />
          </mxGeometry>
        </mxCell>
        <mxCell id="mMDRhzUluplxsm2JugzY-9" value="" style="shape=ellipse;fillColor=#ffffff;strokeColor=none;html=1;sketch=0;hachureGap=4;pointerEvents=0;fontFamily=Helvetica;fontSize=14;" vertex="1" parent="mMDRhzUluplxsm2JugzY-6">
          <mxGeometry x="0.5" y="0.5" width="4" height="4" relative="1" as="geometry">
            <mxPoint x="6" y="-2" as="offset" />
          </mxGeometry>
        </mxCell>
        <mxCell id="mMDRhzUluplxsm2JugzY-10" value="" style="shape=line;strokeWidth=2;html=1;strokeColor=#DFE1E5;resizeWidth=1;sketch=1;hachureGap=4;pointerEvents=0;fontFamily=Helvetica;fontSize=14;" vertex="1" parent="1">
          <mxGeometry x="119" y="460" width="620" height="9" as="geometry" />
        </mxCell>
        <mxCell id="mMDRhzUluplxsm2JugzY-11" value="" style="html=1;shadow=0;dashed=0;shape=mxgraph.bootstrap.rrect;rSize=5;strokeColor=#DFDFDF;html=1;whiteSpace=wrap;fillColor=#FFFFFF;fontColor=#000000;fontSize=14;" vertex="1" parent="1">
          <mxGeometry x="121" y="540" width="620" height="120" as="geometry" />
        </mxCell>
        <mxCell id="mMDRhzUluplxsm2JugzY-12" value="&lt;span style=&quot;text-align: center&quot;&gt;&lt;font style=&quot;font-size: 14px&quot;&gt;&amp;lt;project-name&amp;gt;, &amp;lt;data-name&amp;gt;, &amp;lt;creation-data&amp;gt;, &amp;lt;data-type&amp;gt;, &amp;lt;data-size&amp;gt;&lt;/font&gt;&lt;/span&gt;" style="strokeColor=inherit;fillColor=inherit;gradientColor=inherit;fontColor=inherit;html=1;shadow=0;dashed=0;shape=mxgraph.bootstrap.topButton;rSize=5;perimeter=none;whiteSpace=wrap;resizeWidth=1;align=left;spacing=10;fontSize=14;" vertex="1" parent="mMDRhzUluplxsm2JugzY-11">
          <mxGeometry width="620" height="40" relative="1" as="geometry" />
        </mxCell>
        <mxCell id="mMDRhzUluplxsm2JugzY-13" value="&lt;span style=&quot;text-align: center&quot;&gt;&amp;lt;project-name&amp;gt;, &amp;lt;data-name&amp;gt;, &amp;lt;creation-data&amp;gt;, &amp;lt;data-type&amp;gt;, &amp;lt;data-size&amp;gt;&lt;/span&gt;" style="strokeColor=inherit;fillColor=inherit;gradientColor=inherit;fontColor=inherit;html=1;shadow=0;dashed=0;perimeter=none;whiteSpace=wrap;resizeWidth=1;align=left;spacing=10;fontSize=14;" vertex="1" parent="mMDRhzUluplxsm2JugzY-11">
          <mxGeometry width="620" height="40" relative="1" as="geometry">
            <mxPoint y="40" as="offset" />
          </mxGeometry>
        </mxCell>
        <mxCell id="mMDRhzUluplxsm2JugzY-14" value="&lt;span style=&quot;text-align: center&quot;&gt;&amp;lt;project-name&amp;gt;, &amp;lt;data-name&amp;gt;, &amp;lt;creation-data&amp;gt;, &amp;lt;data-type&amp;gt;, &amp;lt;data-size&amp;gt;&lt;/span&gt;" style="strokeColor=inherit;fillColor=inherit;gradientColor=inherit;fontColor=inherit;html=1;shadow=0;dashed=0;shape=mxgraph.bootstrap.bottomButton;rSize=5;perimeter=none;whiteSpace=wrap;resizeWidth=1;resizeHeight=0;align=left;spacing=10;fontSize=14;" vertex="1" parent="mMDRhzUluplxsm2JugzY-11">
          <mxGeometry y="1" width="620" height="40" relative="1" as="geometry">
            <mxPoint y="-40" as="offset" />
          </mxGeometry>
        </mxCell>
        <mxCell id="mMDRhzUluplxsm2JugzY-15" value="Modifiable Data" style="html=1;fillColor=none;strokeColor=none;fontSize=14;align=left;fontColor=#596780;whiteSpace=wrap;sketch=1;hachureGap=4;pointerEvents=0;fontFamily=Helvetica;fontStyle=1" vertex="1" parent="1">
          <mxGeometry x="120" y="510" width="120" height="20" as="geometry" />
        </mxCell>
        <mxCell id="mMDRhzUluplxsm2JugzY-16" value="" style="rounded=1;arcSize=23;fillColor=#42526E;strokeColor=none;sketch=0;hachureGap=4;pointerEvents=0;fontFamily=Helvetica;fontSize=14;" vertex="1" parent="1">
          <mxGeometry x="161" y="670" width="40" height="10" as="geometry" />
        </mxCell>
        <mxCell id="mMDRhzUluplxsm2JugzY-17" value="" style="shape=ellipse;fillColor=#ffffff;strokeColor=none;html=1;sketch=0;hachureGap=4;pointerEvents=0;fontFamily=Helvetica;fontSize=14;" vertex="1" parent="mMDRhzUluplxsm2JugzY-16">
          <mxGeometry x="0.5" y="0.5" width="4" height="4" relative="1" as="geometry">
            <mxPoint x="-10" y="-2" as="offset" />
          </mxGeometry>
        </mxCell>
        <mxCell id="mMDRhzUluplxsm2JugzY-18" value="" style="shape=ellipse;fillColor=#ffffff;strokeColor=none;html=1;sketch=0;hachureGap=4;pointerEvents=0;fontFamily=Helvetica;fontSize=14;" vertex="1" parent="mMDRhzUluplxsm2JugzY-16">
          <mxGeometry x="0.5" y="0.5" width="4" height="4" relative="1" as="geometry">
            <mxPoint x="-2" y="-2" as="offset" />
          </mxGeometry>
        </mxCell>
        <mxCell id="mMDRhzUluplxsm2JugzY-19" value="" style="shape=ellipse;fillColor=#ffffff;strokeColor=none;html=1;sketch=0;hachureGap=4;pointerEvents=0;fontFamily=Helvetica;fontSize=14;" vertex="1" parent="mMDRhzUluplxsm2JugzY-16">
          <mxGeometry x="0.5" y="0.5" width="4" height="4" relative="1" as="geometry">
            <mxPoint x="6" y="-2" as="offset" />
          </mxGeometry>
        </mxCell>
        <mxCell id="mMDRhzUluplxsm2JugzY-20" value="" style="shape=line;strokeWidth=2;html=1;strokeColor=#DFE1E5;resizeWidth=1;sketch=1;hachureGap=4;pointerEvents=0;fontFamily=Helvetica;fontSize=14;" vertex="1" parent="1">
          <mxGeometry x="120" y="710" width="620" height="9" as="geometry" />
        </mxCell>
        <mxCell id="mMDRhzUluplxsm2JugzY-21" value="" style="shape=line;strokeWidth=2;html=1;strokeColor=#DFE1E5;resizeWidth=1;sketch=1;hachureGap=4;pointerEvents=0;fontFamily=Helvetica;fontSize=14;" vertex="1" parent="1">
          <mxGeometry x="119" y="210" width="619" height="10" as="geometry" />
        </mxCell>
        <mxCell id="mMDRhzUluplxsm2JugzY-23" style="edgeStyle=orthogonalEdgeStyle;rounded=0;orthogonalLoop=1;jettySize=auto;html=1;fontFamily=Helvetica;fontSize=14;entryX=0.002;entryY=0.475;entryDx=0;entryDy=0;entryPerimeter=0;" edge="1" parent="1" target="mMDRhzUluplxsm2JugzY-13">
          <mxGeometry relative="1" as="geometry">
            <mxPoint x="110" y="600" as="targetPoint" />
            <mxPoint x="80" y="370" as="sourcePoint" />
            <Array as="points">
              <mxPoint x="80" y="350" />
              <mxPoint x="80" y="600" />
            </Array>
          </mxGeometry>
        </mxCell>
      </root>
    </mxGraphModel>
  </diagram>
</mxfile>
